<svg width="21" height="19" viewBox="0 0 21 19" fill="none" xmlns="http://www.w3.org/2000/svg">
<path d="M15.6608 11.5234C15.6608 12.4888 14.8701 13.2715 13.8947 13.2715C12.9193 13.2715 12.1286 12.4888 12.1286 11.5234C12.1286 10.558 12.9193 9.77533 13.8947 9.77533C14.8701 9.77533 15.6608 10.558 15.6608 11.5234Z" fill="#807E81"/>
<path fill-rule="evenodd" clip-rule="evenodd" d="M3.55066 0.0361328C1.59993 0.0361328 0.0185547 1.6014 0.0185547 3.53225V16.5179C0.0185547 17.6212 0.9222 18.5156 2.0369 18.5156H18.1837C19.2984 18.5156 20.202 17.6212 20.202 16.5179V6.52893C20.202 5.42558 19.2984 4.53115 18.1837 4.53115V2.03392C18.1837 0.930571 17.2801 0.0361328 16.1653 0.0361328H3.55066ZM2.54149 3.53225C2.54149 4.08393 2.99332 4.53115 3.55066 4.53115H15.6608V2.53336H3.55066C2.99332 2.53336 2.54149 2.98059 2.54149 3.53225ZM2.54149 6.8836C2.86126 6.97779 3.19999 7.02838 3.55066 7.02838H17.6791V16.0184H2.54149V6.8836Z" fill="#807E81"/>
</svg>
