<svg width="17" height="21" viewBox="0 0 17 21" fill="none" xmlns="http://www.w3.org/2000/svg">
<path d="M11.6426 6.98749C11.6426 7.67709 11.0779 8.23611 10.3811 8.23611H5.83986C5.14317 8.23611 4.57839 7.67709 4.57839 6.98749C4.57839 6.2979 5.14317 5.73888 5.83986 5.73888H10.3811C11.0779 5.73888 11.6426 6.29791 11.6426 6.98749Z" fill="#807E81"/>
<path d="M8.3628 12.7311C9.05953 12.7311 9.62427 12.1721 9.62427 11.4825C9.62427 10.7929 9.05953 10.2339 8.3628 10.2339H5.83986C5.14317 10.2339 4.57839 10.7929 4.57839 11.4825C4.57839 12.1721 5.14317 12.7311 5.83986 12.7311H8.3628Z" fill="#807E81"/>
<path fill-rule="evenodd" clip-rule="evenodd" d="M11.6426 17.9753L14.5138 20.4383C15.1673 20.999 16.1839 20.5395 16.1839 19.6834V2.99192C16.1839 1.88858 15.2803 0.994141 14.1656 0.994141H2.05546C0.940754 0.994141 0.0371094 1.88858 0.0371094 2.99192V19.6834C0.0371094 20.5395 1.05371 20.999 1.70722 20.4383L4.57839 17.9753L7.4506 20.4324C7.82955 20.7566 8.39146 20.7566 8.7704 20.4324L11.6426 17.9753ZM2.92604 16.0882C3.87333 15.2756 5.27974 15.2746 6.22819 16.086L8.1105 17.6963L9.99282 16.086C10.9412 15.2746 12.3476 15.2756 13.2949 16.0882L13.661 16.4022V3.49137H2.56005V16.4022L2.92604 16.0882Z" fill="#807E81"/>
</svg>
