<svg width="21" height="22" viewBox="0 0 21 22" fill="none" xmlns="http://www.w3.org/2000/svg">
<path d="M10.1103 8.48583C11.225 8.48583 12.1286 7.59139 12.1286 6.48805C12.1286 5.3847 11.225 4.49026 10.1103 4.49026C8.99556 4.49026 8.09195 5.3847 8.09195 6.48805C8.09195 7.59139 8.99556 8.48583 10.1103 8.48583Z" fill="#807E81"/>
<path fill-rule="evenodd" clip-rule="evenodd" d="M2.0369 0.994141C0.9222 0.994141 0.0185547 1.88858 0.0185547 2.99192V9.98417C0.0185547 11.0875 0.9222 11.982 2.0369 11.982H18.1837C19.2984 11.982 20.202 11.0875 20.202 9.98417V2.99192C20.202 1.88858 19.2984 0.994141 18.1837 0.994141H2.0369ZM2.54149 9.48472V3.49137H17.6791V9.48472H2.54149Z" fill="#807E81"/>
<path d="M20.202 19.9731C20.202 20.6627 19.6373 21.2217 18.9406 21.2217H1.28002C0.583329 21.2217 0.0185547 20.6627 0.0185547 19.9731C0.0185547 19.2835 0.583329 18.7245 1.28002 18.7245H18.9406C19.6373 18.7245 20.202 19.2835 20.202 19.9731Z" fill="#807E81"/>
<path d="M20.202 15.4781C20.202 16.1677 19.6373 16.7267 18.9406 16.7267H1.28002C0.583329 16.7267 0.0185547 16.1677 0.0185547 15.4781C0.0185547 14.7884 0.583329 14.2295 1.28002 14.2295H18.9406C19.6373 14.2295 20.202 14.7884 20.202 15.4781Z" fill="#807E81"/>
</svg>
