<svg width="17" height="19" viewBox="0 0 17 19" fill="none" xmlns="http://www.w3.org/2000/svg">
<path fill-rule="evenodd" clip-rule="evenodd" d="M12.1472 4.98971C12.1472 7.1964 10.3399 8.98528 8.1105 8.98528C5.8811 8.98528 4.07381 7.1964 4.07381 4.98971C4.07381 2.78302 5.8811 0.994141 8.1105 0.994141C10.3399 0.994141 12.1472 2.78302 12.1472 4.98971ZM9.62427 4.98971C9.62427 5.81722 8.9465 6.48805 8.1105 6.48805C7.2745 6.48805 6.59674 5.81722 6.59674 4.98971C6.59674 4.1622 7.2745 3.49137 8.1105 3.49137C8.9465 3.49137 9.62427 4.1622 9.62427 4.98971Z" fill="#807E81"/>
<path fill-rule="evenodd" clip-rule="evenodd" d="M16.1839 15.145C16.1839 14.7122 16.0469 14.2868 15.7616 13.9588C13.9108 11.8309 11.1696 10.4836 8.1105 10.4836C5.05135 10.4836 2.31012 11.8309 0.459418 13.9588C0.174115 14.2868 0.0371094 14.7122 0.0371094 15.145V16.9764C0.0371094 18.0798 0.940754 18.9742 2.05546 18.9742H14.1656C15.2803 18.9742 16.1839 18.0798 16.1839 16.9764V15.145ZM13.661 15.3791C12.2756 13.9006 10.3028 12.9808 8.1105 12.9808C5.91821 12.9808 3.94548 13.9006 2.56005 15.3791V16.477H13.661V15.3791Z" fill="#807E81"/>
</svg>
