<svg width="22" height="18" viewBox="0 0 22 18" fill="none" xmlns="http://www.w3.org/2000/svg">
<path fill-rule="evenodd" clip-rule="evenodd" d="M8 0C9.171 0 10.2313 0.47356 11 1.2396C11.7687 0.47356 12.829 0 14 0H19.5C20.6046 0 21.5 0.89543 21.5 2V14C21.5 15.1046 20.6046 16 19.5 16H14C13.4407 16 12.9427 16.3461 12.6223 16.825C12.2385 17.3989 11.6904 18 11 18C10.3096 18 9.7615 17.3989 9.3777 16.825C9.0573 16.3461 8.5593 16 8 16H2.5C1.39543 16 0.5 15.1046 0.5 14V2C0.5 0.89543 1.39543 0 2.5 0H8ZM9.75 13.8759C9.2163 13.6344 8.62386 13.5 8 13.5H3V2.5H8C8.9665 2.5 9.75 3.2835 9.75 4.25V13.8759ZM14 2.5C13.0335 2.5 12.25 3.2835 12.25 4.25V13.8759C12.7837 13.6344 13.3761 13.5 14 13.5H19V2.5H14Z" fill="#807E81"/>
</svg>
