<svg width="20" height="19" viewBox="0 0 20 19" fill="none" xmlns="http://www.w3.org/2000/svg">
<path d="M10.0817 17.2578C10.0817 16.5675 9.51823 16.0078 8.82316 16.0078H3.28562V2.50781H8.82316C9.51823 2.50781 10.0817 1.94817 10.0817 1.25781C10.0817 0.567457 9.51823 0.0078125 8.82316 0.0078125H3.03391C1.78279 0.0078125 0.768555 1.01517 0.768555 2.25781V16.2578C0.768555 17.5005 1.78279 18.5078 3.03391 18.5078H8.82316C9.51823 18.5078 10.0817 17.9482 10.0817 17.2578Z" fill="#807E81"/>
<path d="M13.1023 12.4901L15.098 10.5079L7.31297 10.5079C6.61791 10.5079 6.05444 9.94827 6.05444 9.25791C6.05444 8.56755 6.61791 8.00791 7.31297 8.00791L15.098 8.00791L13.1022 6.02565C12.6107 5.53749 12.6107 4.74604 13.1022 4.25788C13.5937 3.76972 14.3905 3.76972 14.882 4.25788L19.0263 8.37403C19.2623 8.60845 19.3949 8.92639 19.3949 9.25791C19.3949 9.58943 19.2623 9.90737 19.0263 10.1418L14.8821 14.2579C14.3906 14.746 13.5937 14.746 13.1023 14.2579C12.6108 13.7697 12.6108 12.9783 13.1023 12.4901Z" fill="#807E81"/>
</svg>
