<svg width="18" height="20" viewBox="0 0 18 20" fill="none" xmlns="http://www.w3.org/2000/svg">
<path fill-rule="evenodd" clip-rule="evenodd" d="M10.4069 18.8176C10.5729 18.94 10.778 19.0124 11 19.0124H17C17.5523 19.0124 18 18.5646 18 18.0124V9.84085C18 9.31035 17.7893 8.80165 17.4142 8.42665L10.4142 1.42661C9.6332 0.645558 8.3668 0.645558 7.5858 1.42661L0.58579 8.42665C0.21071 8.80165 0 9.31035 0 9.84085V18.0124C0 18.5646 0.44772 19.0124 1 19.0124H7C7.222 19.0124 7.4271 18.94 7.5931 18.8176C7.8399 18.6355 8 18.3426 8 18.0124V13.0124H10V18.0124C10 18.3426 10.1601 18.6355 10.4069 18.8176ZM9 3.54793L2.5 10.0479V16.5124H5.5V11.5123C5.5 10.9601 5.94772 10.5123 6.5 10.5123H11.5C12.0523 10.5123 12.5 10.9601 12.5 11.5123V16.5124H15.5V10.0479L9 3.54793Z" fill="#807E81"/>
</svg>
