<svg width="24" height="25" viewBox="0 0 24 25" fill="none" xmlns="http://www.w3.org/2000/svg">
<path fill-rule="evenodd" clip-rule="evenodd" d="M13.4069 20.8176C13.5729 20.94 13.778 21.0124 14 21.0124H20C20.5523 21.0124 21 20.5646 21 20.0124V11.8408C21 11.3103 20.7893 10.8016 20.4142 10.4266L13.4142 3.42661C12.6332 2.64556 11.3668 2.64556 10.5858 3.42661L3.58579 10.4266C3.21071 10.8016 3 11.3103 3 11.8408V20.0124C3 20.5646 3.44772 21.0124 4 21.0124H10C10.222 21.0124 10.4271 20.94 10.5931 20.8176C10.8399 20.6355 11 20.3426 11 20.0124V15.0124H13V20.0124C13 20.3426 13.1601 20.6355 13.4069 20.8176ZM12 5.54793L5.5 12.0479V18.5124H8.5V13.5123C8.5 12.9601 8.94772 12.5123 9.5 12.5123H14.5C15.0523 12.5123 15.5 12.9601 15.5 13.5123V18.5124H18.5V12.0479L12 5.54793Z" fill="#807E81"/>
</svg>
